<svg class="icon icon-close" viewBox="0 0 22 19" fill="none" xmlns="http://www.w3.org/2000/svg">
<path fill-rule="evenodd" clip-rule="evenodd" d="M6.04996 1.72153C5.26891 0.94048 4.00258 0.94048 3.22153 1.72153C2.44048 2.50258 2.44048 3.76891 3.22153 4.54996L8.17231 9.50073L3.22281 14.4502C2.44176 15.2313 2.44176 16.4976 3.22281 17.2787C4.00386 18.0597 5.27019 18.0597 6.05123 17.2787L11.0007 12.3292L15.9495 17.2779C16.7305 18.0589 17.9968 18.0589 18.7779 17.2779C19.5589 16.4968 19.5589 15.2305 18.7779 14.4495L13.8292 9.50073L18.7792 4.55073C19.5602 3.76968 19.5602 2.50336 18.7792 1.72231C17.9981 0.941258 16.7318 0.941258 15.9507 1.72231L11.0007 6.6723L6.04996 1.72153Z" fill="currentColor"/>
</svg>
